<svg width="751" height="750" viewBox="0 0 751 750" fill="none" xmlns="http://www.w3.org/2000/svg">
<path fill-rule="evenodd" clip-rule="evenodd" d="M339.588 1.43275C304.136 4.88275 270.204 13.0468 236.088 26.3378C221.732 31.9308 193.247 46.1387 181.036 53.7967C151.379 72.3977 132.722 87.1127 110.04 109.795C87.3581 132.477 72.6431 151.134 54.0421 180.791C48.8931 189.002 46.8041 192.899 38.2011 210.343C-12.7289 313.618 -12.7339 436.247 38.1871 539.343C46.8071 556.795 48.8971 560.692 54.0421 568.895C72.6431 598.552 87.3581 617.209 110.04 639.891C132.722 662.573 151.379 677.288 181.036 695.889C200.842 708.31 230.97 722.174 257.088 730.884C332.885 756.161 417.291 756.161 493.088 730.884C519.035 722.231 549.464 708.229 569.14 695.889C598.797 677.288 617.454 662.573 640.136 639.891C662.818 617.209 677.533 598.552 696.134 568.895C703.743 556.763 717.907 528.352 723.579 513.843C762.586 414.078 758.558 305.675 712.321 210.866C693.385 172.038 670.907 140.565 640.136 109.796C617.267 86.9288 599.029 72.5427 569.14 53.7967C560.937 48.6517 557.04 46.5617 539.588 37.9417C506.175 21.4377 472.758 10.7698 434.588 4.41976C407.825 -0.0322442 367.638 -1.29625 339.588 1.43275ZM417.088 77.2627C428.098 78.9117 431.284 79.5518 447.588 83.3908C528.102 102.348 602.591 160.988 641.242 235.843C657.626 267.575 666.695 295.616 672.774 333.343C675.353 349.354 675.345 398.163 672.76 415.843C667.63 450.928 657.163 483.619 641.407 513.769C635.506 525.062 627.113 538.856 626.163 538.823C625.847 538.811 623.537 535.999 621.03 532.573C618.524 529.146 613.682 522.518 610.27 517.843C560.727 449.954 522.24 400.565 514.844 395.385C513.67 394.562 512.907 393.737 513.148 393.551C513.39 393.365 517.188 392.634 521.588 391.927C531.17 390.388 550.312 384.722 558.03 381.141C583.953 369.113 604.021 348.328 612.797 324.414C621.037 301.962 622.539 270.229 616.423 247.843C605.397 207.494 579.571 181.646 541.088 172.445C515.761 166.39 495.892 165.342 406.588 165.352C311.75 165.362 260.435 167.313 220.088 172.443C202.962 174.62 195.835 176.378 187.274 180.539C160.84 193.387 142.294 213.202 132.236 239.343C125.598 256.596 123.547 271.22 124.408 295.148C125.072 313.586 126.286 320.901 130.915 334.33C139.109 358.101 160.073 379.083 185.507 388.969C201.793 395.299 229.412 401.998 257.088 406.331C303.367 413.576 319.943 420.088 329.724 434.869C338.294 447.819 336.241 470.405 325.397 482.468C315.767 493.182 306.432 496.535 274.088 500.898C246.103 504.673 227.635 505.224 171.088 503.972C142.213 503.332 115.203 502.817 111.065 502.826C103.584 502.843 103.533 502.825 101.856 499.593C94.7171 485.837 85.0941 456.402 80.6391 434.696C76.4021 414.054 75.6361 404.845 75.6221 374.343C75.6081 343.686 76.0801 338.156 80.6861 314.99C97.9271 228.272 157.036 149.63 235.588 108.902C271.573 90.2438 304.597 80.4228 348.088 75.4448C356.851 74.4418 407.096 75.7657 417.088 77.2627ZM497.088 236.33C507.387 238.658 514.139 242.07 520.977 248.401C530.669 257.374 535.266 269.011 535.372 284.843C535.481 301.099 531.064 312.956 521.306 322.598C508.979 334.78 499.481 336.777 449.411 337.719L416.234 338.343L424.169 350.218C437.851 370.693 449.83 397.459 455.563 420.366C458.262 431.15 458.523 431.659 470.399 449.343C484.673 470.598 494.971 484.479 549.528 556.001C574.45 588.671 579.088 594.834 579.088 595.273C579.088 595.526 573.575 600.294 566.838 605.868C528.512 637.575 483.114 659.404 434.941 669.292C413.971 673.596 405.16 674.329 374.588 674.308C340.157 674.286 333.272 673.519 302.588 666.295C251.843 654.347 199.564 624.48 161.119 585.473L151.649 575.865L217.619 576.104C289.662 576.365 290.701 576.302 316.088 570.172C363.678 558.68 395.017 530.468 406.427 488.843C410.801 472.889 411.805 445.411 408.657 427.843C405.439 409.887 400.819 398.921 390.91 385.717C370.217 358.143 344.925 347.401 260.588 330.366C249.601 328.147 233.427 323.415 226.96 320.527C212.855 314.23 203.127 303.248 200.443 290.592C196.909 273.93 201.661 260.727 214.791 250.725C227.802 240.814 242.597 237.398 277.124 236.331C341.704 234.337 360.243 234.085 422.588 234.349C481.279 234.599 490.518 234.844 497.088 236.33Z" fill="black"/>
</svg>
